/* XPM */
static const char * icon_xpm[] = {
"32 32 255 2",
"  	c None",
". 	c #4E0204",
"+ 	c #C25204",
"@ 	c #DA6604",
"# 	c #F27E0C",
"$ 	c #F69E64",
"% 	c #FA8214",
"& 	c #CA620C",
"* 	c #020204",
"= 	c #726E6C",
"- 	c #BEBEBC",
"; 	c #D2D2D4",
"> 	c #C0C0BE",
", 	c #E5E5E5",
"' 	c #A2A2A4",
") 	c #F27A04",
"! 	c #595546",
"~ 	c #030305",
"{ 	c #C3C3C2",
"] 	c #D6D6D4",
"^ 	c #C4C4C2",
"/ 	c #E7E7E7",
"( 	c #BABABC",
"_ 	c #FFF0C1",
": 	c #E0CF95",
"< 	c #E8E8E8",
"[ 	c #E2E2E4",
"} 	c #D6D6D8",
"| 	c #E8E8E9",
"1 	c #AAAAAC",
"2 	c #7E726C",
"3 	c #BE5604",
"4 	c #FFF1C7",
"5 	c #FFF7D4",
"6 	c #FFF5CF",
"7 	c #FFF9D5",
"8 	c #DCD4AB",
"9 	c #C25604",
"0 	c #FCE0C5",
"a 	c #FCCCA5",
"b 	c #FDF1E4",
"c 	c #FBA456",
"d 	c #CE8744",
"e 	c #D8D8DA",
"f 	c #C2C2BC",
"g 	c #727274",
"h 	c #BE0E04",
"i 	c #FFFCE6",
"j 	c #FFF6D6",
"k 	c #FFF2C7",
"l 	c #FFF2C8",
"m 	c #FFF5D1",
"n 	c #FDF3CE",
"o 	c #BF5406",
"p 	c #FDEDDC",
"q 	c #F4C895",
"r 	c #FDF2EC",
"s 	c #F7B56E",
"t 	c #CB8036",
"u 	c #D3D3D5",
"v 	c #1A1A1C",
"w 	c #000000",
"x 	c #FFFAE0",
"y 	c #FFFCE0",
"z 	c #FFFEEB",
"A 	c #FFFBDE",
"B 	c #FFF5D2",
"C 	c #FDF4D0",
"D 	c #FDE9DC",
"E 	c #FCDEC5",
"F 	c #CB8037",
"G 	c #121214",
"H 	c #4E4E4C",
"I 	c #9E1604",
"J 	c #77725E",
"K 	c #FFFBE1",
"L 	c #FFFDE9",
"M 	c #FFFBE7",
"N 	c #FFFCE9",
"O 	c #FFFFEC",
"P 	c #FFFDE7",
"Q 	c #FDF7D8",
"R 	c #FCE9CD",
"S 	c #FCD0AD",
"T 	c #FBA45E",
"U 	c #FBA856",
"V 	c #723204",
"W 	c #FFF6D8",
"X 	c #FFFAE1",
"Y 	c #FFFDEA",
"Z 	c #FFFDEB",
"` 	c #FFFFED",
" .	c #FFFEEA",
"..	c #FDFBE2",
"+.	c #E36E06",
"@.	c #7E7A7C",
"#.	c #0A0A0C",
"$.	c #FFF4CD",
"%.	c #FFF4D0",
"&.	c #FFF4CF",
"*.	c #FFF8D9",
"=.	c #FFFBE4",
"-.	c #FDFCE8",
";.	c #BB5306",
">.	c #EF7406",
",.	c #464644",
"'.	c #FFFDF8",
").	c #FFF3D0",
"!.	c #FFF6D7",
"~.	c #FFFBE3",
"{.	c #FFFBE8",
"].	c #FDFDEA",
"^.	c #FCDCBD",
"/.	c #FBA85E",
"(.	c #EF7906",
"_.	c #DB6506",
":.	c #222624",
"<.	c #FFF5D3",
"[.	c #FFF8DD",
"}.	c #FFFCE3",
"|.	c #FDF9E5",
"1.	c #F79E56",
"2.	c #CB5906",
"3.	c #FFFDF7",
"4.	c #FFF9DD",
"5.	c #FFFCE8",
"6.	c #FDFADF",
"7.	c #FFFDF9",
"8.	c #FDF5D6",
"9.	c #898877",
"0.	c #FCC48D",
"a.	c #703005",
"b.	c #A09D86",
"c.	c #ACAC9A",
"d.	c #A79F7C",
"e.	c #945E4A",
"f.	c #FBAD68",
"g.	c #F18F40",
"h.	c #F87705",
"i.	c #6A360C",
"j.	c #A09A82",
"k.	c #ACA58C",
"l.	c #C0BBA0",
"m.	c #D8CFAE",
"n.	c #CFC59A",
"o.	c #A25F3C",
"p.	c #FEB264",
"q.	c #FED9BA",
"r.	c #FBD2AC",
"s.	c #FFCC99",
"t.	c #FA7907",
"u.	c #A09981",
"v.	c #ACA488",
"w.	c #C0B591",
"x.	c #EDE8C6",
"y.	c #F9EFC8",
"z.	c #955F49",
"A.	c #F7C3AA",
"B.	c #FFEAD8",
"C.	c #FFF1E1",
"D.	c #69330C",
"E.	c #A09D87",
"F.	c #ACA78F",
"G.	c #C0B798",
"H.	c #D8CCA3",
"I.	c #EDE6C4",
"J.	c #FDF0C1",
"K.	c #FFF8D3",
"L.	c #E0D2A3",
"M.	c #F2AA84",
"N.	c #FFE0BF",
"O.	c #FFD8C0",
"P.	c #C76516",
"Q.	c #A09E8C",
"R.	c #ACA990",
"S.	c #C0BCA1",
"T.	c #D8D4B6",
"U.	c #EDE2BC",
"V.	c #F9ECBE",
"W.	c #FDF2C9",
"X.	c #FFF2C3",
"Y.	c #FFF5CE",
"Z.	c #DED4A9",
"`.	c #FFDEBF",
" +	c #F7A15C",
".+	c #6E3204",
"++	c #A09C85",
"@+	c #ACA890",
"#+	c #C0BA9E",
"$+	c #D8D4B5",
"%+	c #EDEAD0",
"&+	c #FDEEBE",
"*+	c #FFF5CD",
"=+	c #FFF5C8",
"-+	c #FFF7D0",
";+	c #FFF3C6",
">+	c #E4A280",
",+	c #D08A6A",
"'+	c #C0BEA6",
")+	c #D8D6BD",
"!+	c #EDE9C6",
"~+	c #F9EFC9",
"{+	c #FDF3C6",
"]+	c #FFFADD",
"^+	c #FFF1C1",
"/+	c #FFF3C5",
"(+	c #FFFAD6",
"_+	c #DED6AD",
":+	c #DFD3A6",
"<+	c #E3A07E",
"[+	c #CE8868",
"}+	c #C78263",
"|+	c #ACA997",
"1+	c #C0BDA8",
"2+	c #D8D8C1",
"3+	c #EDEDDC",
"4+	c #F9F9E7",
"5+	c #FDFDE3",
"6+	c #FFFBD6",
"7+	c #FFFFE5",
"8+	c #DED8AF",
"9+	c #DED2A9",
"0+	c #D58E6E",
"a+	c #C37F61",
"b+	c #A09C8A",
"c+	c #F9EEC6",
"d+	c #FFFDDD",
"e+	c #DFD4A6",
"f+	c #B27257",
"g+	c #6F3004",
"h+	c #662D04",
"i+	c #37352B",
"j+	c #ACABA8",
"k+	c #C0BCA6",
"l+	c #D8D2B4",
"m+	c #EDE7C5",
"n+	c #F9F3CF",
"o+	c #FDF5CE",
"p+	c #FFF4CB",
"q+	c #DAD9C5",
"r+	c #92A2A4",
"s+	c #627274",
"t+	c #434034",
"u+	c #D8D7D3",
"v+	c #F9F7D7",
"w+	c #FDFBDE",
"x+	c #FFFDE0",
"y+	c #FFFBD8",
"z+	c #060A0C",
"A+	c #524F41",
"B+	c #F9F8F3",
"C+	c #FDF4CE",
"D+	c #FFF6D0",
"E+	c #0A0E0C",
"F+	c #585445",
"                                              . . .             ",
"                                          . . + + @ . .         ",
"                                        . + @ # $ $ % & .       ",
"                                      * = = = = $ $ $ % & .     ",
"                                    * - ; > , ' = ) $ % ) @ .   ",
"                        ! !       ~ { ] ^ / ( - ( = % ) @ @ *   ",
"                    ! ! _ : !   ~ < [ } | } ( - - 1 2 ) @ 3 *   ",
"                ! ! 4 5 6 7 8 9 0 a a b c d e f - 1 g . 3 h *   ",
"            ! ! i j k l m n o p 0 q r s c c t u 1 g v . h w     ",
"        ! ! x y z A j B C o D E a r s c c c c F ; G H . I .     ",
"    J J K L M N O P A Q o R E S r s T U U c c o V H g . .       ",
"J J j W X Y Z ` `  ...o R 0 S r s c U T c c o +.V g @.#.        ",
"J $.%.&.*.=.i Z ` -.o p 0 a r s c T T c c ;.>.>.V @.,.          ",
"J '.B ).!.~.=.{.].o D ^.a r s /././.c c o (.>._.V :.            ",
"  ! '.<.[.M }.|.o p E S r s c 1.c c c o (.>._.2.*               ",
"    ! 3.4.5.6.o D E S r s T c U c c o >.>._.2.V                 ",
"      ! 7.8.o p 0 a r s T c c c c ;.(.>._.2.V 9.w               ",
"        w o E S 0.r s T c c c c ;.(.>._.2.a.b.c.d.w             ",
"        V e.f.g.h.c c /.T c c o >.>._.2.i.j.k.l.m.n.w           ",
"        o.p.q.r.s.t.c c /.c o >.>._.2.a.u.v.w.m.x.y.8 w         ",
"      o.z.A.B.C.C.B.t.c U o >.>._.2.D.E.F.G.H.I.y.J.K.L.w       ",
"      o.M.N.C.C.B.O.A.t.P.>.>._.2.a.Q.R.S.T.U.V.W.X.Y.Y.Z.w     ",
"      o.A.B.C.B.`.A.M. +P.>._.2..+++@+#+$+%+y.&+Y.*+=+-+;+Z.w   ",
"    o.M.N.C.B.O.A.M.>+,+P._.2.V ++k.'+)+!+~+{+]+^+=+/+(+/+_+:+w ",
"    o.A.B.B.`.A.M.<+[+}+P.2.V b.|+1+2+3+4+5+]+(+6+y 7+8+9+w w   ",
"    o.O.B.O.A.M.>+0+a+z.z.V b+F.#+m.U.c+W.*+7 d+y e+L.w w       ",
"  w * * 0+A.M.>+0+f+z.g+h+i+j+k+l+m+n+o+p+;+Y._+q+w w           ",
"  * r+s+* >+0+z.V V h+      t+u+!+v+w+x+y+_+9+w w               ",
"* :.s+z+* V V V               A+B+C+D+:+9+w w                   ",
"w s+E+w w                       F+'.L.w w                       ",
"w w *                             ! w                           ",
"                                                                "};
